<svg width="32" height="20" viewBox="0 0 32 20" fill="none" xmlns="http://www.w3.org/2000/svg">
<g opacity="0.85">
<g filter="url(#filter0_b_505_5323)">
<circle cx="9.58976" cy="9.58976" r="9.58976" fill="url(#paint0_linear_505_5323)" fill-opacity="0.3"/>
</g>
<g filter="url(#filter1_b_505_5323)">
<path d="M31.0711 9.59001C31.0711 14.8863 26.7776 19.1798 21.4814 19.1798C16.1851 19.1798 11.8916 14.8863 11.8916 9.59001C11.8916 4.29373 16.1851 0.000244141 21.4814 0.000244141C26.7776 0.000244141 31.0711 4.29373 31.0711 9.59001Z" fill="url(#paint1_linear_505_5323)" fill-opacity="0.7"/>
</g>
<g filter="url(#filter2_b_505_5323)">
<path d="M15.5357 2.06519C13.3159 3.82159 11.8916 6.53938 11.8916 9.58982C11.8916 12.6403 13.3159 15.3581 15.5357 17.1145C17.7555 15.3581 19.1798 12.6403 19.1798 9.58982C19.1798 6.53938 17.7555 3.82159 15.5357 2.06519Z" fill="url(#paint2_linear_505_5323)" fill-opacity="0.6"/>
</g>
</g>
<defs>
<filter id="filter0_b_505_5323" x="-24.4306" y="-24.4306" width="68.0409" height="68.0407" filterUnits="userSpaceOnUse" color-interpolation-filters="sRGB">
<feFlood flood-opacity="0" result="BackgroundImageFix"/>
<feGaussianBlur in="BackgroundImageFix" stdDeviation="12.2153"/>
<feComposite in2="SourceAlpha" operator="in" result="effect1_backgroundBlur_505_5323"/>
<feBlend mode="normal" in="SourceGraphic" in2="effect1_backgroundBlur_505_5323" result="shape"/>
</filter>
<filter id="filter1_b_505_5323" x="-12.539" y="-24.4304" width="68.0409" height="68.0407" filterUnits="userSpaceOnUse" color-interpolation-filters="sRGB">
<feFlood flood-opacity="0" result="BackgroundImageFix"/>
<feGaussianBlur in="BackgroundImageFix" stdDeviation="12.2153"/>
<feComposite in2="SourceAlpha" operator="in" result="effect1_backgroundBlur_505_5323"/>
<feBlend mode="normal" in="SourceGraphic" in2="effect1_backgroundBlur_505_5323" result="shape"/>
</filter>
<filter id="filter2_b_505_5323" x="-12.539" y="-22.3654" width="56.1493" height="63.9105" filterUnits="userSpaceOnUse" color-interpolation-filters="sRGB">
<feFlood flood-opacity="0" result="BackgroundImageFix"/>
<feGaussianBlur in="BackgroundImageFix" stdDeviation="12.2153"/>
<feComposite in2="SourceAlpha" operator="in" result="effect1_backgroundBlur_505_5323"/>
<feBlend mode="normal" in="SourceGraphic" in2="effect1_backgroundBlur_505_5323" result="shape"/>
</filter>
<linearGradient id="paint0_linear_505_5323" x1="9.58976" y1="0" x2="9.58976" y2="19.1795" gradientUnits="userSpaceOnUse">
<stop stop-color="#131313" stop-opacity="0.71"/>
<stop offset="1" stop-color="#272727"/>
</linearGradient>
<linearGradient id="paint1_linear_505_5323" x1="21.4814" y1="0.000244141" x2="21.4814" y2="19.1798" gradientUnits="userSpaceOnUse">
<stop stop-color="#1F1F1F" stop-opacity="0.45"/>
<stop offset="1" stop-color="#505050"/>
</linearGradient>
<linearGradient id="paint2_linear_505_5323" x1="15.5357" y1="2.06519" x2="15.5357" y2="17.1145" gradientUnits="userSpaceOnUse">
<stop stop-color="#313131" stop-opacity="0.07"/>
<stop offset="1" stop-color="#ABABAB"/>
</linearGradient>
</defs>
</svg>
