<svg width="469" height="469" viewBox="0 0 469 469" fill="none" xmlns="http://www.w3.org/2000/svg">
<path d="M41.2531 232.596C41.2531 282.35 61.018 330.067 96.1998 365.249C131.382 400.431 179.098 420.196 228.853 420.196C278.608 420.196 326.324 400.431 361.506 365.249C396.688 330.067 416.453 282.35 416.453 232.596C416.453 182.841 396.688 135.124 361.506 99.9424C326.324 64.7605 278.608 44.9956 228.853 44.9956C179.098 44.9956 131.382 64.7605 96.1998 99.9424C61.018 135.124 41.2531 182.841 41.2531 232.596Z" fill="#D9EDFF"/>
<path d="M112.377 123.697L47.7305 269.509" stroke="#020064" stroke-width="1.50648" stroke-linecap="round" stroke-linejoin="round"/>
<path d="M171.682 365.777L47.7305 269.51" stroke="#020064" stroke-width="1.50648" stroke-linecap="round" stroke-linejoin="round"/>
<path d="M365.088 221.604L300.844 334.333" stroke="#00AED9" stroke-width="1.50648" stroke-linecap="round" stroke-linejoin="round"/>
<path d="M112.376 123.697L280.517 87.8987" stroke="#020064" stroke-width="1.50648" stroke-linecap="round" stroke-linejoin="round"/>
<path d="M365.089 221.606L280.519 87.8987" stroke="#020064" stroke-width="1.50648" stroke-linecap="round" stroke-linejoin="round"/>
<path d="M365.089 221.604L227.508 252.371L47.7305 269.508" stroke="#020064" stroke-width="1.50648" stroke-linecap="round" stroke-linejoin="round"/>
<path d="M112.376 123.697L171.681 365.776" stroke="#020064" stroke-width="1.50648" stroke-linecap="round" stroke-linejoin="round"/>
<path d="M280.517 87.8987L227.506 252.372" stroke="#020064" stroke-width="1.50648" stroke-linecap="round" stroke-linejoin="round"/>
<path d="M112.376 123.697L300.844 334.335" stroke="#020064" stroke-width="1.50648" stroke-linecap="round" stroke-linejoin="round"/>
<path d="M300.845 334.333L171.682 365.775" stroke="#020064" stroke-width="1.50648" stroke-linecap="round" stroke-linejoin="round"/>
<path d="M47.7305 269.51L280.519 87.8987" stroke="#020064" stroke-width="1.50648" stroke-linecap="round" stroke-linejoin="round"/>
<path d="M1.37292 260.823C1.37292 267.612 2.71001 274.334 5.30783 280.605C7.90566 286.877 11.7134 292.576 16.5135 297.376C21.3137 302.176 27.0123 305.984 33.284 308.582C39.5557 311.179 46.2777 312.517 53.0661 312.517C59.8546 312.517 66.5765 311.179 72.8482 308.582C79.1199 305.984 84.8186 302.176 89.6187 297.376C94.4189 292.576 98.2266 286.877 100.824 280.605C103.422 274.334 104.759 267.612 104.759 260.823C104.759 254.035 103.422 247.313 100.824 241.041C98.2266 234.769 94.4189 229.071 89.6187 224.271C84.8186 219.471 79.1199 215.663 72.8482 213.065C66.5765 210.467 59.8546 209.13 53.0661 209.13C46.2777 209.13 39.5557 210.467 33.284 213.065C27.0123 215.663 21.3137 219.471 16.5135 224.271C11.7134 229.071 7.90566 234.769 5.30783 241.041C2.71001 247.313 1.37292 254.035 1.37292 260.823Z" fill="white" stroke="#020064" stroke-width="1.50648" stroke-linecap="round" stroke-linejoin="round"/>
<path d="M80.6658 273.986C80.6557 272.863 80.2573 271.779 79.5384 270.916C78.8194 270.053 77.8241 269.466 76.7215 269.254V266.098C76.7656 262.961 76.1859 259.847 75.0161 256.936C73.8462 254.025 72.1095 251.376 69.9069 249.142C67.7043 246.908 65.0797 245.134 62.1857 243.924C59.2916 242.713 56.1858 242.089 53.0487 242.089C49.9116 242.089 46.8058 242.713 43.9117 243.924C41.0176 245.134 38.3931 246.908 36.1905 249.142C33.9879 251.376 32.2512 254.025 31.0813 256.936C29.9115 259.847 29.3318 262.961 29.3759 266.098V269.254C28.2259 269.469 27.1931 270.095 26.4693 271.014C25.7456 271.934 25.3802 273.085 25.441 274.253C25.5017 275.421 25.9845 276.528 26.7996 277.368C27.6148 278.207 28.7069 278.722 29.8731 278.817C30.9844 284.141 33.8951 288.921 38.1158 292.351C42.3365 295.782 47.6096 297.655 53.0487 297.655C58.4877 297.655 63.7609 295.782 67.9816 292.351C72.2023 288.921 75.113 284.141 76.2243 278.817C77.4329 278.708 78.5576 278.153 79.3789 277.26C80.2001 276.367 80.659 275.2 80.6658 273.986Z" fill="white" stroke="#020064" stroke-width="1.50648" stroke-linecap="round" stroke-linejoin="round"/>
<path d="M37.2877 276.949C37.2877 277.734 37.5995 278.487 38.1545 279.042C38.7095 279.597 39.4622 279.909 40.2471 279.909C41.032 279.909 41.7847 279.597 42.3397 279.042C42.8947 278.487 43.2065 277.734 43.2065 276.949C43.2065 276.164 42.8947 275.412 42.3397 274.857C41.7847 274.302 41.032 273.99 40.2471 273.99C39.4622 273.99 38.7095 274.302 38.1545 274.857C37.5995 275.412 37.2877 276.164 37.2877 276.949Z" fill="#B0D9FF"/>
<path d="M62.931 276.949C62.931 277.338 63.0076 277.723 63.1563 278.082C63.305 278.441 63.523 278.767 63.7978 279.042C64.0726 279.317 64.3989 279.535 64.7579 279.683C65.117 279.832 65.5018 279.909 65.8904 279.909C66.2791 279.909 66.6639 279.832 67.0229 279.683C67.382 279.535 67.7082 279.317 67.983 279.042C68.2578 278.767 68.4758 278.441 68.6245 278.082C68.7733 277.723 68.8498 277.338 68.8498 276.949C68.8498 276.561 68.7733 276.176 68.6245 275.817C68.4758 275.458 68.2578 275.131 67.983 274.857C67.7082 274.582 67.382 274.364 67.0229 274.215C66.6639 274.066 66.2791 273.99 65.8904 273.99C65.5018 273.99 65.117 274.066 64.7579 274.215C64.3989 274.364 64.0726 274.582 63.7978 274.857C63.523 275.131 63.305 275.458 63.1563 275.817C63.0076 276.176 62.931 276.561 62.931 276.949Z" fill="#B0D9FF"/>
<path d="M47.1522 284.029C48.9036 285.199 50.9625 285.823 53.0687 285.823C55.1748 285.823 57.2337 285.199 58.9851 284.029" stroke="#020064" stroke-width="1.50648" stroke-linecap="round" stroke-linejoin="round"/>
<path d="M78.7107 260.181C78.7567 256.784 78.1273 253.412 76.8593 250.261C75.5912 247.109 73.7097 244.241 71.324 241.823C68.9384 239.405 66.096 237.485 62.9621 236.174C59.8281 234.864 56.4651 234.189 53.0681 234.189C49.6712 234.189 46.3081 234.864 43.1742 236.174C40.0403 237.485 37.1979 239.405 34.8122 241.823C32.4266 244.241 30.5451 247.109 29.277 250.261C28.009 253.412 27.3796 256.784 27.4256 260.181V266.099C27.4256 266.622 27.6331 267.123 28.0025 267.492C28.3719 267.862 28.8729 268.069 29.3954 268.069H33.3443C33.8668 268.069 34.3678 267.862 34.7372 267.492C35.1066 267.123 35.3141 266.622 35.3141 266.099C35.316 263.75 35.7899 261.426 36.7075 259.263C37.6252 257.101 38.9679 255.145 40.6561 253.512C41.0873 253.088 41.6104 252.77 42.1846 252.581C42.7588 252.392 43.3688 252.338 43.9672 252.423C46.4564 252.734 48.769 253.872 50.5332 255.655C52.8643 258.058 55.9381 259.605 59.2574 260.045C62.5767 260.485 65.9474 259.793 68.8242 258.08C69.8142 260.001 70.4497 262.086 70.7002 264.233C70.7566 264.747 71 265.222 71.3839 265.568C71.7679 265.914 72.2657 266.106 72.7826 266.109H76.7269C77.2497 266.108 77.7507 265.899 78.12 265.529C78.4893 265.159 78.6967 264.657 78.6967 264.134L78.7107 260.181Z" fill="white" stroke="#020064" stroke-width="1.50648" stroke-linecap="round" stroke-linejoin="round"/>
<path d="M78.7107 260.181C78.7567 256.784 78.1273 253.412 76.8593 250.261C75.5912 247.109 73.7097 244.241 71.324 241.823C68.9384 239.405 66.096 237.485 62.9621 236.174C59.8281 234.864 56.4651 234.189 53.0681 234.189C49.6712 234.189 46.3081 234.864 43.1742 236.174C40.0403 237.485 37.1979 239.405 34.8122 241.823C32.4266 244.241 30.5451 247.109 29.277 250.261C28.009 253.412 27.3796 256.784 27.4256 260.181V266.099C27.4256 266.622 27.6331 267.123 28.0025 267.492C28.3719 267.862 28.8729 268.069 29.3954 268.069H33.3443C33.8668 268.069 34.3678 267.862 34.7372 267.492C35.1066 267.123 35.3141 266.622 35.3141 266.099C35.316 263.75 35.7899 261.426 36.7075 259.263C37.6252 257.101 38.9679 255.145 40.6561 253.512C41.0873 253.088 41.6104 252.77 42.1846 252.581C42.7588 252.392 43.3688 252.338 43.9672 252.423C46.4564 252.734 48.769 253.872 50.5332 255.655C52.8643 258.058 55.9381 259.605 59.2574 260.045C62.5767 260.485 65.9474 259.793 68.8242 258.08C69.8142 260.001 70.4497 262.086 70.7002 264.233C70.7566 264.747 71 265.222 71.3839 265.568C71.7679 265.914 72.2657 266.106 72.7826 266.109H76.7269C77.2497 266.108 77.7507 265.899 78.12 265.529C78.4893 265.159 78.6967 264.657 78.6967 264.134L78.7107 260.181Z" stroke="#020064" stroke-width="1.50648" stroke-linecap="round" stroke-linejoin="round"/>
<path d="M68.8225 258.082C69.031 257.958 69.1984 257.776 69.304 257.558C69.4095 257.34 69.4484 257.095 69.4159 256.855C69.3834 256.615 69.2809 256.39 69.1211 256.208C68.9614 256.025 68.7515 255.894 68.5177 255.831C65.4217 254.958 62.7422 253.002 60.9668 250.32" fill="#FFDF3D"/>
<path d="M68.8225 258.082C69.031 257.958 69.1984 257.776 69.304 257.558C69.4095 257.34 69.4484 257.095 69.4159 256.855C69.3834 256.615 69.2809 256.39 69.1211 256.208C68.9614 256.025 68.7515 255.894 68.5177 255.831C65.4217 254.958 62.7422 253.002 60.9668 250.32" stroke="#020064" stroke-width="1.50648" stroke-linecap="round" stroke-linejoin="round"/>
<path d="M41.2347 269.055C41.2347 269.444 41.3113 269.829 41.46 270.188C41.6087 270.547 41.8267 270.873 42.1015 271.148C42.3763 271.423 42.7026 271.64 43.0616 271.789C43.4207 271.938 43.8055 272.014 44.1941 272.014C44.5828 272.014 44.9676 271.938 45.3266 271.789C45.6857 271.64 46.0119 271.423 46.2867 271.148C46.5615 270.873 46.7795 270.547 46.9283 270.188C47.077 269.829 47.1535 269.444 47.1535 269.055C47.1535 268.666 47.077 268.282 46.9283 267.923C46.7795 267.564 46.5615 267.237 46.2867 266.962C46.0119 266.688 45.6857 266.47 45.3266 266.321C44.9676 266.172 44.5828 266.096 44.1941 266.096C43.8055 266.096 43.4207 266.172 43.0616 266.321C42.7026 266.47 42.3763 266.688 42.1015 266.962C41.8267 267.237 41.6087 267.564 41.46 267.923C41.3113 268.282 41.2347 268.666 41.2347 269.055Z" fill="#020064"/>
<path d="M58.9871 269.055C58.9871 269.84 59.2989 270.593 59.8538 271.148C60.4088 271.703 61.1616 272.014 61.9465 272.014C62.7313 272.014 63.4841 271.703 64.0391 271.148C64.5941 270.593 64.9058 269.84 64.9058 269.055C64.9058 268.27 64.5941 267.517 64.0391 266.962C63.4841 266.407 62.7313 266.096 61.9465 266.096C61.1616 266.096 60.4088 266.407 59.8538 266.962C59.2989 267.517 58.9871 268.27 58.9871 269.055Z" fill="#020064"/>
<path d="M53.0693 234.535C56.4287 234.529 59.7562 235.186 62.8616 236.467C65.9671 237.748 68.7896 239.629 71.1681 242.001C72.2169 240.357 72.7809 238.45 72.7955 236.5C72.7955 228.874 63.9642 222.688 53.0693 222.688C42.1745 222.688 33.3713 228.874 33.3713 236.5C33.3789 238.448 33.9348 240.354 34.9753 242.001C37.353 239.629 40.1748 237.749 43.2794 236.468C46.3841 235.187 49.7108 234.53 53.0693 234.535Z" fill="white" stroke="#020064" stroke-width="1.50648" stroke-linecap="round" stroke-linejoin="round"/>
<path d="M226.243 86.9466C226.243 100.656 231.689 113.805 241.383 123.499C251.078 133.194 264.226 138.64 277.936 138.64C291.646 138.64 304.794 133.194 314.488 123.499C324.183 113.805 329.629 100.656 329.629 86.9466C329.629 73.2367 324.183 60.0884 314.488 50.394C304.794 40.6996 291.646 35.2534 277.936 35.2534C264.226 35.2534 251.078 40.6996 241.383 50.394C231.689 60.0884 226.243 73.2367 226.243 86.9466Z" fill="white" stroke="#020064" stroke-width="1.50648" stroke-linecap="round" stroke-linejoin="round"/>
<path d="M311.464 100.366C311.452 99.0937 311 97.8643 310.185 96.8871C309.369 95.9099 308.24 95.2452 306.99 95.0058V91.4273C306.99 84.3137 304.164 77.4914 299.134 72.4612C294.104 67.4311 287.282 64.6052 280.168 64.6052C273.054 64.6052 266.232 67.4311 261.202 72.4612C256.172 77.4914 253.346 84.3137 253.346 91.4273V95.0058C252.04 95.2469 250.866 95.9546 250.043 96.997C249.22 98.0395 248.805 99.3456 248.873 100.672C248.942 101.998 249.491 103.254 250.418 104.206C251.344 105.158 252.585 105.74 253.909 105.844C255.165 111.881 258.462 117.3 263.246 121.191C268.029 125.081 274.007 127.205 280.173 127.205C286.339 127.205 292.316 125.081 297.1 121.191C301.883 117.3 305.18 111.881 306.437 105.844C307.805 105.719 309.078 105.088 310.008 104.076C310.937 103.063 311.456 101.741 311.464 100.366Z" fill="white" stroke="#020064" stroke-width="1.50648" stroke-linecap="round" stroke-linejoin="round"/>
<path d="M311.464 100.366C311.452 99.0937 311 97.8643 310.185 96.8871C309.369 95.9099 308.24 95.2452 306.99 95.0058V91.4273C306.99 84.3137 304.164 77.4914 299.134 72.4612C294.104 67.4311 287.282 64.6052 280.168 64.6052C273.054 64.6052 266.232 67.4311 261.202 72.4612C256.172 77.4914 253.346 84.3137 253.346 91.4273V95.0058C252.04 95.2469 250.866 95.9546 250.043 96.997C249.22 98.0395 248.805 99.3456 248.873 100.672C248.942 101.998 249.491 103.254 250.418 104.206C251.344 105.158 252.585 105.74 253.909 105.844C255.165 111.881 258.462 117.3 263.246 121.191C268.029 125.081 274.007 127.205 280.173 127.205C286.339 127.205 292.316 125.081 297.1 121.191C301.883 117.3 305.18 111.881 306.437 105.844C307.805 105.719 309.078 105.088 310.008 104.076C310.937 103.063 311.456 101.741 311.464 100.366V100.366Z" stroke="#020064" stroke-width="1.50648" stroke-linecap="round" stroke-linejoin="round"/>
<path d="M266.759 94.7706C266.759 95.66 267.113 96.5129 267.741 97.1418C268.37 97.7706 269.223 98.1239 270.113 98.1239C271.002 98.1239 271.855 97.7706 272.484 97.1418C273.113 96.5129 273.466 95.66 273.466 94.7706C273.466 93.8812 273.113 93.0283 272.484 92.3994C271.855 91.7705 271.002 91.4172 270.113 91.4172C269.223 91.4172 268.37 91.7705 267.741 92.3994C267.113 93.0283 266.759 93.8812 266.759 94.7706Z" fill="#020064"/>
<path d="M286.874 94.7706C286.874 95.66 287.227 96.5129 287.856 97.1418C288.485 97.7706 289.338 98.1239 290.227 98.1239C291.116 98.1239 291.969 97.7706 292.598 97.1418C293.227 96.5129 293.58 95.66 293.58 94.7706C293.58 93.8812 293.227 93.0283 292.598 92.3994C291.969 91.7705 291.116 91.4172 290.227 91.4172C289.338 91.4172 288.485 91.7705 287.856 92.3994C287.227 93.0283 286.874 93.8812 286.874 94.7706Z" fill="#020064"/>
<path d="M262.289 103.708C262.289 104.597 262.642 105.45 263.271 106.079C263.9 106.708 264.753 107.061 265.642 107.061C266.532 107.061 267.385 106.708 268.014 106.079C268.642 105.45 268.996 104.597 268.996 103.708C268.996 102.819 268.642 101.966 268.014 101.337C267.385 100.708 266.532 100.355 265.642 100.355C264.753 100.355 263.9 100.708 263.271 101.337C262.642 101.966 262.289 102.819 262.289 103.708Z" fill="#B0D9FF"/>
<path d="M291.341 103.708C291.341 104.597 291.694 105.45 292.323 106.079C292.952 106.708 293.805 107.061 294.694 107.061C295.584 107.061 296.436 106.708 297.065 106.079C297.694 105.45 298.048 104.597 298.048 103.708C298.048 102.819 297.694 101.966 297.065 101.337C296.436 100.708 295.584 100.355 294.694 100.355C293.805 100.355 292.952 100.708 292.323 101.337C291.694 101.966 291.341 102.819 291.341 103.708Z" fill="#B0D9FF"/>
<path d="M273.463 111.74C275.448 113.063 277.781 113.77 280.167 113.77C282.554 113.77 284.886 113.063 286.872 111.74" stroke="#020064" stroke-width="1.50648" stroke-linecap="round" stroke-linejoin="round"/>
<path d="M251.109 71.2876V91.403C251.109 91.9955 251.344 92.5638 251.762 92.9832C252.181 93.4027 252.749 93.6389 253.341 93.6401H255.602L264.513 71.2876H251.109Z" fill="white" stroke="#020064" stroke-width="1.50648" stroke-linecap="round" stroke-linejoin="round"/>
<path d="M309.225 73.5343C309.224 68.7923 307.339 64.2449 303.985 60.8922C300.632 57.5395 296.084 55.6561 291.342 55.6561H271.226C270.373 55.6562 269.537 55.4115 268.818 54.951C268.098 54.4905 267.527 53.8335 267.17 53.0578C266.934 52.5379 266.565 52.0901 266.099 51.7604C265.633 51.4307 265.088 51.231 264.52 51.1818H260.721C257.297 51.1156 253.97 52.3183 251.38 54.5584C248.79 56.7984 247.121 59.9174 246.693 63.3148C246.359 66.8222 247.418 70.3201 249.642 73.0529C251.866 75.7857 255.075 77.5338 258.578 77.9195C259.21 80.2923 260.54 82.4208 262.395 84.0296C264.251 85.6383 266.546 86.6532 268.985 86.943H273.459C273.635 86.9414 273.807 86.8823 273.947 86.7746C274.086 86.6669 274.187 86.5165 274.234 86.3462C274.281 86.176 274.271 85.9951 274.205 85.8311C274.14 85.6671 274.023 85.529 273.872 85.4376C271.84 84.2249 270.361 82.2683 269.749 79.9831C269.68 79.7532 269.665 79.5103 269.706 79.2737C269.747 79.0371 269.843 78.8135 269.986 78.6206C270.129 78.4278 270.316 78.2712 270.53 78.1633C270.745 78.0554 270.982 77.9992 271.222 77.9992H289.485C290.072 77.9992 290.654 78.1151 291.196 78.3405C291.739 78.5659 292.231 78.8961 292.646 79.3124L304.751 91.4126H306.983C307.277 91.4132 307.568 91.3558 307.84 91.2436C308.112 91.1314 308.358 90.9666 308.566 90.7588C308.774 90.5509 308.939 90.304 309.051 90.0323C309.163 89.7606 309.221 89.4694 309.22 89.1755L309.225 73.5343Z" fill="white"/>
<path d="M309.225 73.5343C309.224 68.7923 307.339 64.2449 303.985 60.8922C300.632 57.5395 296.084 55.6561 291.342 55.6561H271.226C270.373 55.6562 269.537 55.4115 268.818 54.951C268.098 54.4905 267.527 53.8335 267.17 53.0578C266.934 52.5379 266.565 52.0901 266.099 51.7604C265.633 51.4307 265.088 51.231 264.52 51.1818H260.721C257.297 51.1156 253.97 52.3183 251.38 54.5584C248.79 56.7984 247.121 59.9174 246.693 63.3148C246.359 66.8222 247.418 70.3201 249.642 73.0529C251.866 75.7857 255.075 77.5338 258.578 77.9195C259.21 80.2923 260.54 82.4208 262.395 84.0296C264.251 85.6383 266.546 86.6532 268.985 86.943H273.459C273.635 86.9414 273.807 86.8823 273.947 86.7746C274.086 86.6669 274.187 86.5165 274.234 86.3462C274.281 86.176 274.271 85.9951 274.205 85.8311C274.14 85.6671 274.023 85.529 273.872 85.4376C271.84 84.2249 270.361 82.2683 269.749 79.9831C269.68 79.7532 269.665 79.5103 269.706 79.2737C269.747 79.0371 269.843 78.8135 269.986 78.6206C270.129 78.4278 270.316 78.2712 270.53 78.1633C270.745 78.0554 270.982 77.9992 271.222 77.9992H289.485C290.072 77.9992 290.654 78.1151 291.196 78.3405C291.739 78.5659 292.231 78.8961 292.646 79.3124L304.751 91.4126H306.983C307.277 91.4132 307.568 91.3558 307.84 91.2436C308.112 91.1314 308.358 90.9666 308.566 90.7588C308.774 90.5509 308.939 90.304 309.051 90.0323C309.163 89.7606 309.221 89.4694 309.22 89.1755L309.225 73.5343Z" stroke="#020064" stroke-width="1.50648" stroke-linecap="round" stroke-linejoin="round"/>
<path d="M346.553 331.481L365.321 312.715L398.162 345.557L379.394 364.324L346.553 331.481Z" fill="white" stroke="#020064" stroke-width="1.50648" stroke-linecap="round" stroke-linejoin="round"/>
<path d="M461.965 427.259L461.07 428.155C457.444 431.751 452.545 433.769 447.438 433.769C442.332 433.769 437.432 431.751 433.807 428.155L374.549 368.873C373.35 367.664 372.677 366.031 372.677 364.329C372.677 362.626 373.35 360.993 374.549 359.784L393.618 340.714C394.826 339.516 396.459 338.843 398.16 338.843C399.862 338.843 401.495 339.516 402.703 340.714L461.965 399.973C463.765 401.76 465.193 403.885 466.168 406.227C467.142 408.568 467.644 411.08 467.644 413.616C467.644 416.152 467.142 418.663 466.168 421.005C465.193 423.346 463.765 425.472 461.965 427.259Z" fill="#B0D9FF"/>
<path d="M461.965 427.259L461.07 428.155C457.444 431.751 452.545 433.769 447.438 433.769C442.332 433.769 437.432 431.751 433.807 428.155L374.549 368.873C373.35 367.664 372.677 366.031 372.677 364.329C372.677 362.626 373.35 360.993 374.549 359.784L393.618 340.714C394.826 339.516 396.459 338.843 398.16 338.843C399.862 338.843 401.495 339.516 402.703 340.714L461.965 399.973C463.765 401.76 465.193 403.885 466.168 406.227C467.142 408.568 467.644 411.08 467.644 413.616C467.644 416.152 467.142 418.663 466.168 421.005C465.193 423.346 463.765 425.472 461.965 427.259Z" stroke="#020064" stroke-width="1.50648" stroke-linecap="round" stroke-linejoin="round"/>
<path d="M205.358 313.052C219.136 335.568 241.295 351.689 266.959 357.867C292.623 364.046 319.69 359.776 342.207 345.998C364.723 332.219 380.843 310.061 387.022 284.397C393.2 258.732 388.93 231.665 375.152 209.149C361.374 186.633 339.215 170.513 313.551 164.334C287.887 158.156 260.82 162.425 238.303 176.204C215.787 189.982 199.667 212.141 193.488 237.805C187.31 263.469 191.58 290.536 205.358 313.052Z" fill="white" stroke="#020064" stroke-width="1.50648" stroke-linecap="round" stroke-linejoin="round"/>
<path d="M346.558 204.802C357.692 215.938 365.275 230.125 368.347 245.57C371.419 261.015 369.842 277.024 363.815 291.573C357.788 306.122 347.583 318.557 334.489 327.305C321.396 336.054 306.002 340.724 290.254 340.724C274.507 340.724 259.113 336.054 246.019 327.305C232.926 318.557 222.72 306.122 216.694 291.573C210.667 277.024 209.09 261.015 212.162 245.57C215.233 230.125 222.816 215.938 233.951 204.802C241.344 197.408 250.122 191.543 259.783 187.541C269.443 183.539 279.798 181.479 290.254 181.479C300.711 181.479 311.065 183.539 320.726 187.541C330.386 191.543 339.164 197.408 346.558 204.802Z" fill="#B0D9FF"/>
<path d="M288.334 299.266C279.184 299.318 270.203 301.733 262.262 306.278C254.321 310.823 247.689 317.343 243.01 325.206C256.235 334.943 272.145 340.357 288.564 340.706C304.984 341.055 321.11 336.323 334.737 327.157C330.226 318.764 323.535 311.743 315.368 306.835C307.202 301.926 297.862 299.311 288.334 299.266Z" fill="white"/>
<path d="M288.334 299.266C279.184 299.318 270.203 301.733 262.262 306.278C254.321 310.823 247.689 317.343 243.01 325.206C256.235 334.943 272.145 340.357 288.564 340.706C304.984 341.055 321.11 336.323 334.737 327.157C330.226 318.764 323.535 311.743 315.368 306.835C307.202 301.926 297.862 299.311 288.334 299.266V299.266Z" stroke="#020064" stroke-width="1.50648" stroke-linejoin="round"/>
<path d="M304.069 301.824C303.225 301.556 302.373 301.315 301.513 301.102C300.52 300.851 299.639 300.276 299.01 299.467C298.381 298.658 298.041 297.662 298.043 296.637V280.794H279.391V296.459C279.39 297.489 279.044 298.49 278.407 299.299C277.77 300.109 276.879 300.681 275.878 300.924C274.799 301.187 273.725 301.477 272.665 301.81L272.557 301.951C272.833 305.953 274.618 309.702 277.551 312.44C280.484 315.177 284.346 316.7 288.358 316.7C292.37 316.7 296.232 315.177 299.165 312.44C302.098 309.702 303.883 305.953 304.159 301.951L304.069 301.824Z" fill="white" stroke="#020064" stroke-width="1.50648" stroke-linecap="round" stroke-linejoin="round"/>
<path d="M330.33 241.534C330.33 252.728 325.883 263.465 317.967 271.381C310.051 279.297 299.315 283.744 288.12 283.744C276.926 283.744 266.189 279.297 258.273 271.381C250.358 263.465 245.91 252.728 245.91 241.534C245.91 218.196 257.823 199.886 269.942 196.406C270.952 196.116 272.021 196.103 273.037 196.368C274.054 196.633 274.98 197.166 275.72 197.912C288.843 211.11 330.33 194.662 330.33 241.534Z" fill="white"/>
<path d="M330.33 241.534C330.33 252.728 325.883 263.465 317.967 271.381C310.051 279.297 299.315 283.744 288.12 283.744C276.926 283.744 266.189 279.297 258.273 271.381C250.358 263.465 245.91 252.728 245.91 241.534C245.91 218.196 257.823 199.886 269.942 196.406C270.952 196.116 272.021 196.103 273.037 196.368C274.054 196.633 274.98 197.166 275.72 197.912C288.843 211.11 330.33 194.662 330.33 241.534Z" stroke="#020064" stroke-width="1.50648" stroke-linecap="round" stroke-linejoin="round"/>
<path d="M323.331 252.087L316.245 255.604L311.133 237.716C310.655 235.999 309.538 234.528 308.011 233.608C306.484 232.687 304.663 232.385 302.921 232.764C293.181 235.084 283.033 235.084 273.294 232.764C271.552 232.386 269.731 232.688 268.204 233.609C266.677 234.53 265.56 235.999 265.082 237.716L259.97 255.604L252.991 252.087C242.95 252.087 243.611 269.674 254.745 269.674H254.778C256.981 276.807 261.412 283.046 267.419 287.478C273.427 291.909 280.696 294.3 288.161 294.3C295.626 294.3 302.895 291.909 308.903 287.478C314.911 283.046 319.341 276.807 321.545 269.674C332.693 269.674 333.368 252.087 323.331 252.087Z" fill="white" stroke="#020064" stroke-width="1.50648" stroke-linecap="round" stroke-linejoin="round"/>
<path d="M273.056 252.97C273.056 254.072 273.494 255.129 274.273 255.908C275.052 256.687 276.109 257.125 277.211 257.125C278.314 257.125 279.37 256.687 280.15 255.908C280.929 255.129 281.367 254.072 281.367 252.97C281.367 251.868 280.929 250.811 280.15 250.032C279.37 249.252 278.314 248.814 277.211 248.814C276.109 248.814 275.052 249.252 274.273 250.032C273.494 250.811 273.056 251.868 273.056 252.97Z" fill="#020064"/>
<path d="M295.022 252.97C295.022 254.072 295.46 255.129 296.239 255.908C297.018 256.687 298.075 257.125 299.177 257.125C300.279 257.125 301.336 256.687 302.115 255.908C302.895 255.129 303.332 254.072 303.332 252.97C303.332 251.868 302.895 250.811 302.115 250.032C301.336 249.252 300.279 248.814 299.177 248.814C298.075 248.814 297.018 249.252 296.239 250.032C295.46 250.811 295.022 251.868 295.022 252.97Z" fill="#020064"/>
<path d="M270.612 262.64C270.612 263.336 270.406 264.016 270.019 264.595C269.632 265.173 269.083 265.624 268.44 265.89C267.797 266.156 267.089 266.226 266.407 266.09C265.724 265.954 265.097 265.618 264.606 265.126C264.114 264.633 263.779 264.006 263.644 263.323C263.509 262.641 263.579 261.933 263.846 261.291C264.113 260.648 264.565 260.099 265.144 259.713C265.723 259.327 266.403 259.122 267.099 259.123C267.561 259.123 268.018 259.214 268.445 259.39C268.871 259.567 269.259 259.826 269.585 260.153C269.911 260.48 270.17 260.868 270.346 261.294C270.522 261.721 270.613 262.178 270.612 262.64Z" fill="#B0D9FF"/>
<path d="M312.824 262.64C312.824 263.336 312.618 264.016 312.231 264.594C311.845 265.173 311.295 265.624 310.652 265.89C310.01 266.156 309.302 266.226 308.62 266.09C307.938 265.954 307.311 265.619 306.819 265.127C306.327 264.635 305.992 264.009 305.856 263.326C305.721 262.644 305.79 261.937 306.057 261.294C306.323 260.651 306.774 260.102 307.352 259.715C307.931 259.329 308.611 259.123 309.306 259.123C310.239 259.123 311.134 259.493 311.794 260.153C312.453 260.812 312.824 261.707 312.824 262.64Z" fill="#B0D9FF"/>
<path d="M279.417 274.051C282.021 275.785 285.08 276.71 288.209 276.71C291.337 276.71 294.396 275.785 297 274.051" stroke="#020064" stroke-width="1.50648" stroke-linecap="round" stroke-linejoin="round"/>
<path d="M346.558 204.802C357.692 215.938 365.275 230.125 368.347 245.57C371.419 261.015 369.842 277.024 363.815 291.573C357.788 306.122 347.583 318.557 334.489 327.305C321.396 336.054 306.002 340.724 290.254 340.724C274.507 340.724 259.113 336.054 246.019 327.305C232.926 318.557 222.72 306.122 216.694 291.573C210.667 277.024 209.09 261.015 212.162 245.57C215.233 230.125 222.816 215.938 233.951 204.802C241.344 197.408 250.122 191.543 259.783 187.541C269.443 183.539 279.798 181.479 290.254 181.479C300.711 181.479 311.065 183.539 320.726 187.541C330.386 191.543 339.164 197.408 346.558 204.802V204.802Z" stroke="#020064" stroke-width="1.50648" stroke-linecap="round" stroke-linejoin="round"/>
<path d="M137.282 358.028C137.282 366.75 140.747 375.115 146.914 381.282C153.081 387.45 161.446 390.914 170.168 390.914C178.89 390.914 187.255 387.45 193.422 381.282C199.59 375.115 203.054 366.75 203.054 358.028C203.054 349.306 199.59 340.941 193.422 334.774C187.255 328.607 178.89 325.142 170.168 325.142C161.446 325.142 153.081 328.607 146.914 334.774C140.747 340.941 137.282 349.306 137.282 358.028Z" fill="white" stroke="#020064" stroke-width="1.50648" stroke-linecap="round" stroke-linejoin="round"/>
<path d="M159.587 357.266C159.587 360.072 160.702 362.763 162.686 364.748C164.67 366.732 167.362 367.847 170.168 367.847C172.974 367.847 175.665 366.732 177.649 364.748C179.634 362.763 180.748 360.072 180.748 357.266V351.976C180.748 349.169 179.634 346.478 177.649 344.494C175.665 342.51 172.974 341.395 170.168 341.395C167.362 341.395 164.67 342.51 162.686 344.494C160.702 346.478 159.587 349.169 159.587 351.976V357.266Z" fill="white" stroke="#020064" stroke-width="1.50648" stroke-linecap="round" stroke-linejoin="round"/>
<path d="M192.154 382.482C186.118 387.905 178.29 390.905 170.176 390.905C162.062 390.905 154.234 387.905 148.199 382.482C150.005 378.147 153.052 374.443 156.958 371.837C160.864 369.231 165.454 367.838 170.15 367.834C174.845 367.83 179.437 369.215 183.348 371.815C187.258 374.414 190.312 378.113 192.125 382.444" fill="#B0D9FF"/>
<path d="M192.154 382.482C186.118 387.905 178.29 390.905 170.176 390.905C162.062 390.905 154.234 387.905 148.199 382.482C150.005 378.147 153.052 374.443 156.958 371.837C160.864 369.231 165.454 367.838 170.15 367.834C174.845 367.83 179.437 369.215 183.348 371.815C187.258 374.414 190.312 378.113 192.125 382.444" stroke="#020064" stroke-width="1.50648" stroke-linecap="round" stroke-linejoin="round"/>
<path d="M159.673 350.61C159.95 348.476 160.872 346.478 162.315 344.882C163.757 343.285 165.652 342.167 167.747 341.675C169.842 341.183 172.036 341.342 174.039 342.13C176.041 342.917 177.755 344.297 178.953 346.084C176.45 348.512 173.334 350.215 169.939 351.012C166.543 351.809 162.995 351.67 159.673 350.61Z" fill="#B0D9FF" stroke="#020064" stroke-width="1.50648" stroke-linecap="round" stroke-linejoin="round"/>
<path d="M80.7844 120.785C80.7844 129.507 84.2492 137.872 90.4166 144.039C96.584 150.206 104.949 153.671 113.671 153.671C122.393 153.671 130.757 150.206 136.925 144.039C143.092 137.872 146.557 129.507 146.557 120.785C146.557 112.063 143.092 103.698 136.925 97.5308C130.757 91.3635 122.393 87.8987 113.671 87.8987C104.949 87.8987 96.584 91.3635 90.4166 97.5308C84.2492 103.698 80.7844 112.063 80.7844 120.785Z" fill="white" stroke="#020064" stroke-width="1.50648" stroke-linecap="round" stroke-linejoin="round"/>
<path d="M103.083 120.022C103.142 122.79 104.282 125.425 106.261 127.363C108.239 129.3 110.898 130.385 113.666 130.385C116.435 130.385 119.094 129.3 121.072 127.363C123.051 125.425 124.191 122.79 124.249 120.022V114.732C124.191 111.963 123.051 109.328 121.072 107.391C119.094 105.454 116.435 104.369 113.666 104.369C110.898 104.369 108.239 105.454 106.261 107.391C104.282 109.328 103.142 111.963 103.083 114.732V120.022Z" fill="white" stroke="#020064" stroke-width="1.50648" stroke-linecap="round" stroke-linejoin="round"/>
<path d="M135.653 145.245C129.616 150.665 121.789 153.663 113.676 153.663C105.562 153.663 97.7353 150.665 91.6984 145.245C93.5043 140.91 96.552 137.206 100.458 134.6C104.364 131.994 108.953 130.601 113.649 130.597C118.345 130.593 122.937 131.978 126.847 134.577C130.758 137.177 133.812 140.876 135.625 145.207" fill="#B0D9FF"/>
<path d="M135.653 145.245C129.616 150.665 121.789 153.663 113.676 153.663C105.562 153.663 97.7353 150.665 91.6984 145.245C93.5043 140.91 96.552 137.206 100.458 134.6C104.364 131.994 108.953 130.601 113.649 130.597C118.345 130.593 122.937 131.978 126.847 134.577C130.758 137.177 133.812 140.876 135.625 145.207" stroke="#020064" stroke-width="1.50648" stroke-linecap="round" stroke-linejoin="round"/>
<path d="M103.178 113.365C103.454 111.23 104.375 109.231 105.818 107.633C107.261 106.036 109.157 104.916 111.252 104.425C113.348 103.934 115.544 104.093 117.546 104.883C119.549 105.672 121.263 107.054 122.459 108.844C119.954 111.271 116.839 112.973 113.443 113.769C110.048 114.565 106.501 114.425 103.178 113.365Z" fill="#B0D9FF" stroke="#020064" stroke-width="1.50648" stroke-linecap="round" stroke-linejoin="round"/>
</svg>
