<svg width="48" height="15" viewBox="0 0 48 15" fill="none" xmlns="http://www.w3.org/2000/svg">
<path d="M17.0437 14.5132L19.469 0.285519H23.3467L20.9208 14.5132H17.0437ZM34.9132 0.597643C33.8004 0.194528 32.6248 -0.00775024 31.4413 0.000227064C27.6143 0.000227064 24.9183 1.92752 24.8951 4.6903C24.874 6.73226 26.8201 7.87118 28.2894 8.55063C29.7971 9.24749 30.3038 9.69175 30.2965 10.3138C30.2871 11.2662 29.0922 11.701 27.9794 11.701C26.4289 11.701 25.6057 11.4833 24.3332 10.9556L23.8345 10.7298L23.2908 13.9107C24.1953 14.3071 25.8685 14.6511 27.6049 14.6685C31.6764 14.6685 34.3194 12.7638 34.3499 9.81369C34.3645 8.19711 33.3337 6.96671 31.0979 5.95262C29.7441 5.29931 28.9151 4.85651 28.9238 4.19086C28.9238 3.6007 29.6258 2.96919 31.1422 2.96919C32.1357 2.94695 33.123 3.13238 34.0407 3.51362L34.3877 3.67766L34.9132 0.597643ZM44.8755 0.285519H41.892C40.968 0.285519 40.2762 0.538146 39.8704 1.46004L34.1358 14.4406H38.2175C38.2175 14.4406 38.8709 12.7144 39.0211 12.3355L43.9115 12.3413C44.0255 12.832 44.3761 14.4406 44.3761 14.4406H47.9998L44.8755 0.285519ZM40.1317 9.43188C40.4519 8.61306 41.675 5.45973 41.675 5.45973C41.6518 5.49748 41.993 4.63656 42.1882 4.10302L42.4503 5.32837C42.4503 5.32837 43.1921 8.7205 43.3468 9.43188H40.1317ZM13.7532 0.285519L9.96981 9.9538L9.56692 7.9888C8.86279 5.72398 6.66839 3.27044 4.21484 2.04222L7.6745 14.4406L11.7628 14.4362L17.8466 0.285519H13.7343" fill="#172135"/>
<path d="M6.26888 0.285377H0.050083L0 0.580806C4.85919 1.75749 8.07418 4.60013 9.40911 8.01478L8.05095 1.48166C7.81648 0.582269 7.13706 0.313684 6.29574 0.282471" fill="#172135"/>
</svg>
